<svg xmlns:xlink="http://www.w3.org/1999/xlink" xmlns="http://www.w3.org/2000/svg" viewBox="0 0 142 40" focusable="false" class="chakra-icon css-9cn9xt" width="142"  height="40" ><path d="M111.164 17.4813C111.164 20.823 110.618 24.015 109.601 27.0075C106.401 22.2694 104.515 16.5586 104.515 10.399C104.515 7.05737 105.061 3.86535 106.078 0.872833C109.278 5.58605 111.164 11.3217 111.164 17.4813Z" fill="#00473C"></path><path d="M111.213 27.2569C113.496 12.1696 123.171 1.94514 139.296 0C136.493 17.3317 125.255 25.8354 111.213 27.2569Z" fill="#00473C"></path><path d="M142 38.9526C139.42 39.7008 136.815 40 134.012 40C126.644 40 119.896 37.2818 114.712 32.7681C113.446 31.6708 112.256 30.4489 111.189 29.1272C111.164 29.1023 111.139 29.0524 111.115 29.0274C111.139 29.0274 111.164 29.0025 111.189 29.0025C113.744 28.2793 116.448 27.8803 119.227 27.8803C128.48 27.9052 136.617 32.2693 142 38.9526Z" fill="#00473C"></path><path d="M7.78966 25.4613C9.67505 25.4613 11.2379 26.1347 12.5031 27.4563C13.7683 28.803 14.3885 30.5237 14.3885 32.6683C14.3885 34.813 13.7435 36.5586 12.4783 37.9302C11.2876 39.2768 9.57582 40.0249 7.78966 39.9751C6.77254 40 5.75542 39.7257 4.88714 39.202C4.06848 38.6783 3.37386 37.98 2.90252 37.1322V39.7506H0V20.8728H2.90252V28.2045C3.37386 27.3815 4.06848 26.7082 4.88714 26.2344C5.75542 25.7107 6.77254 25.4364 7.78966 25.4613ZM10.1712 36.1596C11.0147 35.2868 11.4364 34.1147 11.4364 32.6683C11.4364 31.2219 11.0147 30.0748 10.1712 29.2519C9.37736 28.4289 8.28581 27.98 7.16946 28.005C6.0283 27.98 4.93676 28.4539 4.16772 29.2768C3.32425 30.1247 2.90252 31.2718 2.90252 32.7182C2.90252 34.1646 3.32425 35.3117 4.16772 36.1845C4.93676 37.0075 6.0283 37.4813 7.16946 37.4813C8.31062 37.4564 9.30294 37.0324 10.1712 36.1596ZM18.2089 37.9302C16.9437 36.5586 16.2987 34.813 16.2987 32.6683C16.2987 30.5237 16.9437 28.803 18.2089 27.4563C19.4741 26.1097 21.0618 25.4613 22.9224 25.4613C23.9396 25.4364 24.9567 25.7107 25.8498 26.2095C26.6684 26.6833 27.3382 27.3566 27.8096 28.1795V25.6858H30.7369V39.7506H27.7848V37.1072C27.3134 37.9551 26.6436 38.6783 25.8249 39.202C24.9567 39.7257 23.9396 40 22.9224 39.9751C21.1115 40.0249 19.3997 39.2768 18.2089 37.9302ZM26.5196 36.1845C27.363 35.3366 27.7848 34.1646 27.7848 32.7182C27.7848 31.2718 27.363 30.1247 26.5196 29.2768C24.9071 27.606 22.2526 27.5561 20.6153 29.177C20.5905 29.202 20.5657 29.2269 20.5409 29.2519C19.6974 30.0748 19.2757 31.2219 19.2757 32.6683C19.2757 34.1147 19.6974 35.2618 20.5409 36.1596C21.3843 37.0324 22.3767 37.4813 23.5426 37.4813C24.659 37.4813 25.7505 37.0075 26.5196 36.1845ZM37.4102 25.7107V27.9302C38.3281 26.2843 39.8414 25.4863 41.9004 25.4863C42.9175 25.4613 43.9347 25.7356 44.8029 26.2593C45.6712 26.783 46.341 27.5561 46.7379 28.4788C47.2093 27.581 47.9039 26.808 48.797 26.2843C49.6901 25.7606 50.732 25.4863 51.7739 25.4863C53.3864 25.4863 54.7013 26.01 55.7432 27.0573C56.7851 28.1047 57.3061 29.576 57.3061 31.4962V39.8005H54.4036V31.9451C54.4036 30.6982 54.0811 29.7257 53.4609 29.0524C52.8407 28.379 51.9724 28.0549 50.8809 28.0549C49.7893 28.0549 48.9458 28.379 48.3008 29.0524C47.6806 29.7257 47.3581 30.6982 47.3581 31.9451V39.8005H44.4804V31.9451C44.4804 30.6982 44.1579 29.7257 43.5377 29.0524C42.9175 28.379 42.0493 28.0549 40.9577 28.0549C39.8662 28.0549 38.9979 28.379 38.3777 29.0524C37.7327 29.7257 37.435 30.6982 37.435 31.9451V39.8005H34.5325V25.7356H37.4102V25.7107ZM68.7673 25.4613C70.6527 25.4613 72.2156 26.1347 73.4808 27.4563C74.746 28.803 75.3662 30.5237 75.3662 32.6683C75.3662 34.813 74.7212 36.5586 73.456 37.9302C72.2652 39.2768 70.5535 40.0249 68.7673 39.9751C67.7502 40 66.7331 39.7257 65.8648 39.202C65.0461 38.6783 64.3515 37.98 63.8802 37.1322V39.7506H60.9776V20.8728H63.8802V28.2045C64.3515 27.3815 65.0461 26.7082 65.8648 26.2344C66.7331 25.7107 67.7502 25.4613 68.7673 25.4613ZM71.124 36.1596C71.9675 35.2868 72.3892 34.1147 72.3892 32.6683C72.3892 31.2219 71.9675 30.0748 71.124 29.2519C70.3302 28.4289 69.2387 27.98 68.1223 28.005C66.9811 27.98 65.8896 28.4539 65.1206 29.2768C64.2771 30.1247 63.8554 31.2718 63.8554 32.7182C63.8554 34.1646 64.2771 35.3117 65.1206 36.1845C65.8896 37.0075 66.9811 37.4813 68.1223 37.4813C69.2635 37.4564 70.2806 37.0324 71.124 36.1596ZM84.3218 40C82.2876 40 80.6006 39.3267 79.261 38.005C77.9462 36.6583 77.2764 34.9127 77.2764 32.7431C77.2764 30.5736 77.971 28.8279 79.3354 27.4813C80.6999 26.1346 82.4116 25.4863 84.4458 25.4863C86.4801 25.4863 88.1918 26.1596 89.5563 27.4813C90.9207 28.8279 91.6153 30.5736 91.6153 32.7182C91.6153 34.8878 90.9207 36.6334 89.5066 37.98C88.0926 39.3267 86.3809 40 84.3218 40ZM87.3484 36.2593C88.1918 35.4115 88.6136 34.2394 88.6136 32.7182C88.6136 31.197 88.1918 30.0249 87.3732 29.177C86.6041 28.3541 85.5126 27.9052 84.3714 27.9052C83.2551 27.8803 82.1883 28.3541 81.4193 29.177C80.6254 30.0249 80.2285 31.197 80.2285 32.7182C80.2285 34.2394 80.6254 35.4364 81.3945 36.2593C82.1387 37.0823 83.2055 37.5561 84.3218 37.5312C85.463 37.5561 86.5545 37.0823 87.3484 36.2593ZM100.571 40C98.5367 40 96.8498 39.3267 95.5101 38.005C94.1953 36.6583 93.5255 34.9127 93.5255 32.7431C93.5255 30.5736 94.2201 28.8279 95.5846 27.4813C96.949 26.1346 98.6607 25.4863 100.695 25.4863C102.729 25.4863 104.441 26.1596 105.805 27.4813C107.17 28.8279 107.864 30.5736 107.864 32.7182C107.864 34.8878 107.17 36.6334 105.756 37.98C104.342 39.3267 102.605 40 100.571 40ZM103.573 36.2593C104.416 35.4115 104.838 34.2394 104.838 32.7182C104.838 31.197 104.416 30.0249 103.597 29.177C102.828 28.3541 101.737 27.9052 100.596 27.9052C99.4794 27.8803 98.4127 28.3541 97.6436 29.177C96.8498 30.0249 96.4528 31.197 96.4528 32.7182C96.4528 34.2394 96.8498 35.4364 97.6188 36.2593C98.363 37.0823 99.4298 37.5561 100.546 37.5312C101.712 37.5561 102.804 37.1072 103.573 36.2593Z" fill="#242424"></path></svg>