<svg xmlns:xlink="http://www.w3.org/1999/xlink" width="26" height="26" viewBox="0 0 26 26" fill="none" xmlns="http://www.w3.org/2000/svg"><path d="M23.2545 21.4686H1.77141V23.2484H0.212891V25.0282H24.813V23.2484H23.2545V21.4686Z" fill="#07775D"></path><path d="M12.8043 0L0 7.17474V9.28823H25.028V7.17474L12.8043 0Z" fill="#07775D"></path><path d="M2.62891 19.5777V20.8291H3.33176H7.21274H7.9156V19.5777H7.21274V11.2349H7.9156V9.98352H7.21274H3.33176H2.62891V11.2349H3.33176V19.5777H2.62891Z" fill="#07775D"></path><path d="M9.87109 19.5777V20.8291H10.574H14.455H15.1579V19.5777H14.455V11.2349H15.1579V9.98352H14.455H10.574H9.87109V11.2349H10.574V19.5777H9.87109Z" fill="#07775D"></path><path d="M17.1133 19.5777V20.8291H17.8161H21.6971H22.4V19.5777H21.6971V11.2349H22.4V9.98352H21.6971H17.8161H17.1133V11.2349H17.8161V19.5777H17.1133Z" fill="#07775D"></path></svg>