<svg xmlns:xlink="http://www.w3.org/1999/xlink" width="169" height="23" viewBox="0 0 169 23" fill="none" xmlns="http://www.w3.org/2000/svg"><path d="M24.3363 22.9428H40.5602V18.6586H29.2367V13.4157H38.6166V9.13153H29.2367V4.2842H40.6164V0H24.3363V22.9428ZM60.0799 14.4306L49.4611 0H42.1382L44.4198 2.90349V22.999H49.3212V7.94806L60.3067 22.9428H64.9823V0H60.0809V14.4306H60.0799ZM16.9286 11.1326C19.0693 10.7095 20.872 8.70842 20.872 5.88976C20.8434 2.84626 18.6465 0 14.2241 0H0L2.19689 2.81866V22.9428H14.7031C19.1255 22.9428 21.4071 20.1803 21.4071 16.7137C21.3499 13.895 19.4064 11.4709 16.9286 11.1326ZM7.12584 4.3118H13.2661C14.9278 4.3118 15.9706 5.27043 15.9706 6.73597C15.9706 8.1729 14.9288 9.16014 13.2661 9.16014H7.12584V4.3118ZM13.4918 18.6862H7.15444V13.4157H13.4918C15.3506 13.4157 16.3934 14.5992 16.3934 16.0371C16.3934 17.6999 15.2945 18.6586 13.4918 18.6862ZM136.721 14.4306H139.284V17.1368C137.961 18.2365 136.299 18.8282 134.58 18.8558C130.496 18.8558 127.595 15.7551 127.595 11.5281C127.595 7.32873 130.497 4.2004 134.58 4.2004C136.721 4.22902 138.692 5.30007 139.819 7.10389L143.678 4.96179C142.016 2.33935 139.116 0 134.496 0C128.018 0 122.61 4.48145 122.61 11.4709C122.61 18.4603 127.933 22.9417 134.496 22.9417C138.073 22.998 141.51 21.4762 143.876 18.7986V10.315H133.426L136.721 14.4306ZM114.639 14.4306L103.991 0H96.6682L98.9498 2.90349V22.999H103.851V7.94806L114.837 22.9428H119.541V0H114.64L114.639 14.4306ZM160.128 0H150.664L152.946 2.90349L152.523 4.00315L145.2 23H150.72L152.157 19.1389H162.044L163.48 23H169L160.128 0ZM153.452 14.7975L157.029 4.90455L160.606 14.7975H153.452ZM88.95 0H93.8513V22.999H88.95V0ZM85.0076 3.94592V0H67.7409V4.2842H78.5855L67.7409 18.9968V22.9428H85.2047V18.6586H74.0783L85.0076 3.94592Z" fill="#BFC5CF"></path></svg>