<svg xmlns:xlink="http://www.w3.org/1999/xlink" width="130" height="53" viewBox="0 0 130 53" fill="none" xmlns="http://www.w3.org/2000/svg"><path d="M10.0528 11.1769C9.45476 10.7434 8.79952 10.5415 7.68924 10.4835C7.17649 10.4544 6.89203 10.4544 6.46456 10.4544C6.35067 10.4544 6.29399 10.5125 6.29399 10.6564V17.5011C6.29399 19.407 6.37927 19.8985 7.29038 20.2734C8.05899 20.5914 8.71423 20.6199 9.36896 20.6199C10.6508 20.6199 12.8147 19.9264 12.8147 16.9231C12.8152 15.1327 12.2172 12.7073 10.0528 11.1769ZM6.29399 8.86656C6.29399 9.09754 6.37927 9.15555 6.49316 9.18403C6.74954 9.24204 7.17649 9.27052 7.83173 9.27052C8.77144 9.27052 9.39808 9.15503 9.88171 8.72206C10.6222 8.11559 11.0492 7.07616 11.0492 5.66072C11.0492 3.72582 9.9384 1.18446 7.48955 1.18446C7.09068 1.18446 6.83482 1.18446 6.54985 1.24247C6.35015 1.30048 6.29347 1.41597 6.29347 1.73344L6.29399 8.86656ZM2.87632 8.37505C2.87632 3.98528 2.87632 3.17684 2.81911 2.25237C2.76191 1.27095 2.53413 0.808448 1.59443 0.606468C1.36665 0.548985 0.8825 0.51998 0.483633 0.51998C0.171092 0.51998 0 0.462498 0 0.25999C0 0.0574826 0.199174 0.000527363 0.626643 0C2.13579 0 3.92991 0.0870149 4.49987 0.0870149C5.89512 0.0870149 7.00592 0 7.97422 0.000527363C13.1288 0.000527363 14.0399 2.80188 14.0399 4.33229C14.0399 6.70015 12.7013 8.11506 11.135 9.38601C13.4705 10.1945 16.3182 12.2454 16.3182 15.6242C16.3182 18.7145 13.9546 21.9199 8.71423 21.9199C8.37257 21.9199 7.54675 21.8618 6.72094 21.8328C5.86652 21.7754 5.0121 21.7463 4.58515 21.7463C4.27157 21.7463 3.64545 21.7463 2.9616 21.7754C2.30688 21.7754 1.56635 21.8328 0.996908 21.8328C0.626643 21.8328 0.426949 21.7463 0.426949 21.5438C0.426949 21.3993 0.540837 21.3129 0.88302 21.3129C1.30997 21.3129 1.65163 21.2554 1.90801 21.1974C2.47745 21.0819 2.61994 20.4464 2.73383 19.6089C2.87632 18.396 2.87632 16.1146 2.87632 13.4578V8.37505ZM20.1613 10.368C20.1613 6.64267 20.1899 5.94918 20.1327 5.16921C20.0754 4.30276 19.8477 4.07177 19.0505 3.84079C18.8513 3.78278 18.4238 3.7543 18.0821 3.7543C17.7972 3.7543 17.6552 3.66728 17.6552 3.49431C17.6552 3.32081 17.8258 3.26332 18.196 3.26332C19.5346 3.26332 21.2148 3.32133 21.9549 3.32133C22.5815 3.32133 24.2617 3.26332 25.1728 3.26332C25.5431 3.26332 25.7137 3.32133 25.7137 3.49431C25.7137 3.66728 25.5712 3.7543 25.3153 3.7543C25.0303 3.7543 24.8879 3.7833 24.5753 3.84079C23.9201 3.95628 23.7209 4.30276 23.6637 5.16921C23.607 5.94866 23.607 6.64214 23.607 10.368V13.8048C23.607 17.3856 24.2903 18.772 25.515 19.754C26.6258 20.6494 27.8219 20.7359 28.6763 20.7359C29.758 20.7359 31.0399 20.4184 32.0363 19.4365C33.4315 18.1081 33.4887 15.9712 33.4887 13.4583V10.368C33.4887 6.64267 33.4601 5.94918 33.4315 5.16921C33.3743 4.33176 33.1751 4.07177 32.3779 3.84079C32.1787 3.78278 31.7513 3.7543 31.4663 3.7543C31.1813 3.7543 31.0394 3.66728 31.0394 3.49431C31.0394 3.32081 31.2104 3.26332 31.5521 3.26332C32.8335 3.26332 34.5137 3.32133 34.5423 3.32133C34.8273 3.32133 36.5075 3.26332 37.4758 3.26332C37.8175 3.26332 37.9886 3.32133 37.9886 3.49431C37.9886 3.66728 37.8461 3.7543 37.5611 3.7543C37.2761 3.7543 37.1336 3.7833 36.8206 3.84079C36.1373 3.95628 35.9667 4.30276 35.9095 5.16921C35.8809 5.94866 35.8523 6.64214 35.8523 10.368V12.9958C35.8523 15.7392 35.5673 18.6275 33.4601 20.3889C31.6941 21.8908 29.7866 22.1503 28.163 22.1503C26.8531 22.1503 24.2617 22.0928 22.439 20.4754C21.1576 19.349 20.1607 17.5296 20.1607 13.9778L20.1613 10.368ZM40.3235 21.5154C39.9247 21.3424 39.8394 21.2264 39.8394 20.6779C39.8394 19.3495 39.9533 17.8191 39.9814 17.4146C39.9814 17.0391 40.0952 16.7791 40.2949 16.7791C40.5227 16.7791 40.5513 17.0101 40.5513 17.1836C40.5513 17.5011 40.6366 18.0211 40.7791 18.454C41.3204 20.2734 43.1999 20.8799 44.7662 20.8799C46.9306 20.8799 48.2406 19.4935 48.2406 17.7611C48.2406 16.6926 47.9842 15.6242 45.7631 14.2952L44.3107 13.4288C41.3491 11.6674 40.3807 10.021 40.3807 7.85507C40.3807 4.85174 43.2285 2.91685 46.7028 2.91685C48.3258 2.91685 49.6077 3.14783 50.2625 3.32133C50.4902 3.37882 50.6041 3.46583 50.6041 3.63933C50.6041 3.95733 50.5188 4.65029 50.5188 6.58518C50.5188 7.10516 50.4049 7.36463 50.2053 7.36463C50.0342 7.36463 49.9489 7.22013 49.9489 6.93166C49.9489 6.70068 49.835 5.94971 49.2936 5.31424C48.9234 4.85227 48.1262 4.15931 46.5026 4.15931C44.7085 4.15931 43.0854 5.11226 43.0854 6.78716C43.0854 7.88461 43.4843 8.75107 45.734 10.0215L46.7595 10.5989C50.0628 12.4474 51.0883 14.3248 51.0883 16.5481C51.0883 18.3675 50.4044 19.8405 48.5822 21.1399C47.3861 22.0063 45.7345 22.1503 44.3959 22.1503C42.9435 22.1508 41.4057 22.0069 40.3235 21.5154ZM55.3026 10.368C55.3026 6.64267 55.3026 5.94918 55.2746 5.16921C55.2174 4.33176 54.961 4.04277 54.4201 3.86979C54.1352 3.78278 53.8221 3.7543 53.509 3.7543C53.2527 3.7543 53.1102 3.69629 53.1102 3.4653C53.1102 3.32081 53.3093 3.26332 53.7082 3.26332C54.6479 3.26332 56.3568 3.32133 57.0687 3.32133C57.6953 3.32133 59.3184 3.26332 60.2867 3.26332C60.5997 3.26332 60.7994 3.32133 60.7994 3.4653C60.7994 3.69629 60.6569 3.7543 60.4005 3.7543C60.1442 3.7543 59.945 3.78278 59.6605 3.84079C58.9772 3.95628 58.7775 4.30276 58.7208 5.16921C58.6642 5.94866 58.6641 6.64214 58.6641 10.368V14.6997C58.6641 17.0676 58.6642 19.032 58.778 20.0714C58.8633 20.7354 59.0344 21.1109 59.7749 21.2264C60.1166 21.2844 60.686 21.3134 61.0563 21.3134C61.3413 21.3134 61.4552 21.4579 61.4552 21.5734C61.4552 21.7463 61.256 21.8334 60.971 21.8334C59.3194 21.8334 57.6106 21.7469 56.9272 21.7469C56.3578 21.7469 54.649 21.8334 53.6526 21.8334C53.339 21.8334 53.1684 21.7469 53.1684 21.5734C53.1684 21.4579 53.2537 21.3134 53.5673 21.3134C53.9375 21.3134 54.222 21.2844 54.4498 21.2264C54.9625 21.1109 55.105 20.7644 55.1903 20.0424C55.3042 19.0315 55.3042 17.0676 55.3042 14.6997L55.3026 10.368ZM67.2635 18.483C67.3201 20.3889 67.6337 20.9664 68.1179 21.1399C68.5453 21.2844 69.029 21.3129 69.4278 21.3129C69.7128 21.3129 69.8553 21.4283 69.8553 21.5728C69.8553 21.7748 69.6275 21.8328 69.2859 21.8328C67.6628 21.8328 66.4948 21.7463 66.0393 21.7463C65.8115 21.7463 64.6154 21.8328 63.3341 21.8328C62.9924 21.8328 62.7646 21.8044 62.7646 21.5728C62.7646 21.4283 62.9357 21.3129 63.1635 21.3129C63.5052 21.3129 63.9607 21.2839 64.3029 21.1974C64.9576 21.0239 65.0429 20.3599 65.0715 18.2225L65.2993 3.66728C65.2993 3.17631 65.4699 2.82983 65.7268 2.82983C66.0398 2.82983 66.3815 3.20531 66.8089 3.63828C67.1225 3.95628 70.8813 7.85455 74.5263 11.4649C76.2351 13.1688 79.567 16.6346 79.9372 16.9811H80.0511L79.7942 6.06468C79.7661 4.56275 79.5384 4.12978 78.9403 3.8988C78.5701 3.7543 77.9715 3.7543 77.6298 3.7543C77.3168 3.7543 77.231 3.63881 77.231 3.49431C77.231 3.29233 77.4874 3.26332 77.8576 3.26332C79.1676 3.26332 80.5062 3.32133 81.0475 3.32133C81.3325 3.32133 82.2717 3.26332 83.4964 3.26332C83.838 3.26332 84.0658 3.29233 84.0658 3.49431C84.0658 3.63881 83.9233 3.7543 83.6388 3.7543C83.3825 3.7543 83.1833 3.7543 82.8697 3.84079C82.1864 4.04277 81.9872 4.47626 81.9586 5.86217L81.6736 21.3419C81.6736 21.8903 81.4745 22.1213 81.2748 22.1213C80.8478 22.1213 80.5062 21.8613 80.2498 21.6013C78.6834 20.1284 75.5507 17.0961 72.9313 14.5257C70.1975 11.8688 67.549 8.89398 67.0643 8.46102H66.979L67.2635 18.483ZM88.4502 10.368C88.4502 6.64267 88.4502 5.94918 88.4216 5.16921C88.3649 4.33176 88.1372 4.07177 87.3394 3.84079C87.1402 3.78278 86.7133 3.7543 86.343 3.7543C86.0867 3.7543 85.9156 3.66728 85.9156 3.49431C85.9156 3.32081 86.1147 3.26332 86.485 3.26332C87.795 3.26332 89.3899 3.32133 90.1018 3.32133C90.8991 3.32133 96.4525 3.34981 96.9367 3.32133C97.3922 3.29233 97.7911 3.20584 97.9903 3.17684C98.1328 3.14783 98.2752 3.06134 98.3891 3.06134C98.5316 3.06134 98.5602 3.17684 98.5602 3.29233C98.5602 3.46583 98.4177 3.75483 98.3605 4.88075C98.3325 5.14074 98.2752 6.20917 98.2186 6.49817C98.19 6.61366 98.1333 6.90266 97.9336 6.90266C97.7625 6.90266 97.7339 6.78716 97.7339 6.58518C97.7339 6.41168 97.7058 5.97872 97.5633 5.68972C97.3636 5.25676 97.1644 4.91028 95.9112 4.79479C95.4842 4.73678 92.494 4.67929 91.9813 4.67929C91.8674 4.67929 91.8102 4.76578 91.8102 4.91028V10.975C91.8102 11.1195 91.8388 11.2349 91.9813 11.2349C92.5507 11.2349 95.7973 11.2349 96.3672 11.1775C96.9653 11.1195 97.3355 11.062 97.5633 10.802C97.7625 10.6285 97.8483 10.484 97.9622 10.484C98.0761 10.484 98.1614 10.5995 98.1614 10.744C98.1614 10.8885 98.1041 11.2924 97.9622 12.5344C97.905 13.0253 97.8483 14.0073 97.8483 14.1803C97.8483 14.3822 97.8197 14.7293 97.5919 14.7293C97.4208 14.7293 97.3636 14.6422 97.3636 14.5273C97.3355 14.2673 97.3355 13.9498 97.2783 13.6318C97.1358 13.1408 96.8223 12.7654 95.8831 12.6789C95.4275 12.6209 92.5798 12.5634 91.9532 12.5634C91.8393 12.5634 91.8107 12.6789 91.8107 12.8234V14.7873C91.8107 15.6247 91.7826 17.7041 91.8107 18.4261C91.8679 20.101 92.6365 20.4765 95.1998 20.4765C95.855 20.4765 96.9086 20.4475 97.5633 20.1585C98.19 19.8695 98.4744 19.35 98.645 18.3391C98.7022 18.0791 98.7589 17.9636 98.93 17.9636C99.1291 17.9636 99.1577 18.2816 99.1577 18.541C99.1577 19.09 98.9581 20.7649 98.8156 21.2559C98.6445 21.8914 98.4172 21.8914 97.477 21.8914C95.5976 21.8914 94.0879 21.8624 92.8638 21.8049C91.6391 21.7759 90.6994 21.7469 89.9588 21.7469C89.6739 21.7469 89.133 21.7759 88.535 21.7759C87.9369 21.8049 87.3103 21.8334 86.7975 21.8334C86.4845 21.8334 86.3134 21.7469 86.3134 21.5734C86.3134 21.4579 86.3987 21.3134 86.7123 21.3134C87.0825 21.3134 87.367 21.2844 87.5948 21.2264C88.1075 21.1109 88.2495 20.6489 88.3348 19.9269C88.4487 18.8875 88.4487 16.9526 88.4487 14.6997L88.4502 10.368ZM102.29 21.5154C101.891 21.3424 101.806 21.2264 101.806 20.6779C101.806 19.3495 101.92 17.8191 101.948 17.4146C101.948 17.0391 102.062 16.7791 102.261 16.7791C102.489 16.7791 102.518 17.0101 102.518 17.1836C102.518 17.5011 102.604 18.0211 102.746 18.454C103.287 20.2734 105.167 20.8799 106.733 20.8799C108.897 20.8799 110.207 19.4935 110.207 17.7611C110.207 16.6926 109.951 15.6242 107.729 14.2952L106.277 13.4288C103.315 11.6674 102.347 10.021 102.347 7.85507C102.347 4.85174 105.195 2.91685 108.669 2.91685C110.292 2.91685 111.574 3.14783 112.229 3.32133C112.457 3.37882 112.57 3.46583 112.57 3.63933C112.57 3.95733 112.485 4.65029 112.485 6.58518C112.485 7.10516 112.371 7.36463 112.172 7.36463C112.001 7.36463 111.915 7.22013 111.915 6.93166C111.915 6.70068 111.801 5.94971 111.26 5.31424C110.89 4.85227 110.093 4.15931 108.469 4.15931C106.675 4.15931 105.051 5.11226 105.051 6.78716C105.051 7.88461 105.45 8.75107 107.7 10.0215L108.725 10.5989C112.029 12.4474 113.054 14.3248 113.054 16.5481C113.054 18.3675 112.37 19.8405 110.548 21.1399C109.351 22.0063 107.7 22.1503 106.361 22.1503C104.91 22.1508 103.372 22.0069 102.29 21.5154ZM116.471 21.5154C116.073 21.3424 115.987 21.2264 115.987 20.6779C115.987 19.3495 116.101 17.8191 116.13 17.4146C116.13 17.0391 116.243 16.7791 116.443 16.7791C116.671 16.7791 116.7 17.0101 116.7 17.1836C116.7 17.5011 116.785 18.0211 116.927 18.454C117.468 20.2734 119.348 20.8799 120.914 20.8799C123.079 20.8799 124.389 19.4935 124.389 17.7611C124.389 16.6926 124.132 15.6242 121.911 14.2952L120.459 13.4288C117.497 11.6674 116.529 10.021 116.529 7.85507C116.529 4.85174 119.377 2.91685 122.851 2.91685C124.475 2.91685 125.756 3.14783 126.411 3.32133C126.639 3.37882 126.752 3.46583 126.752 3.63933C126.752 3.95733 126.667 4.65029 126.667 6.58518C126.667 7.10516 126.553 7.36463 126.354 7.36463C126.182 7.36463 126.097 7.22013 126.097 6.93166C126.097 6.70068 125.983 5.94971 125.442 5.31424C125.072 4.85227 124.274 4.15931 122.651 4.15931C120.857 4.15931 119.234 5.11226 119.234 6.78716C119.234 7.88461 119.632 8.75107 121.882 10.0215L122.907 10.5989C126.211 12.4474 127.236 14.3248 127.236 16.5481C127.236 18.3675 126.552 19.8405 124.73 21.1399C123.534 22.0063 121.882 22.1503 120.544 22.1503C119.091 22.1508 117.553 22.0069 116.471 21.5154ZM4.04327 39.2242C4.04327 34.8344 4.04327 34.026 3.98607 33.1021C3.92887 32.1201 3.64441 31.6291 3.01777 31.4846C2.70418 31.3976 2.33444 31.3691 1.99278 31.3691C1.7078 31.3691 1.53722 31.3117 1.53722 31.0807C1.53722 30.9072 1.765 30.8492 2.22055 30.8492C3.30274 30.8492 5.09687 30.9362 5.92268 30.9362C6.63461 30.9362 8.31485 30.8492 9.39704 30.8492C9.7673 30.8492 9.99508 30.9072 9.99508 31.0807C9.99508 31.3117 9.82399 31.3691 9.53953 31.3691C9.25455 31.3691 9.02677 31.3981 8.68511 31.4562C7.9165 31.6001 7.6882 32.0916 7.63152 33.1021C7.57432 34.026 7.57431 34.8344 7.57431 39.2242V44.3069C7.57431 47.1083 7.57432 49.3902 7.6882 50.6316C7.77401 51.4111 7.97318 51.931 8.8276 52.0465C9.22647 52.104 9.85259 52.162 10.2801 52.162C10.5936 52.162 10.7356 52.249 10.7356 52.393C10.7356 52.595 10.5078 52.682 10.1948 52.682C8.31536 52.682 6.52124 52.5955 5.75211 52.5955C5.09739 52.5955 3.30326 52.682 2.16387 52.682C1.7936 52.682 1.59443 52.5955 1.59443 52.393C1.59443 52.2485 1.70832 52.162 2.04998 52.162C2.47745 52.162 2.81911 52.104 3.07549 52.0465C3.64493 51.931 3.8155 51.4401 3.90131 50.6026C4.04379 49.3902 4.0438 47.1083 4.0438 44.3069L4.04327 39.2242ZM18.5387 49.3322C18.5959 51.2381 18.909 51.8155 19.3932 51.989C19.8201 52.1335 20.3043 52.162 20.7031 52.162C20.9881 52.162 21.1306 52.2775 21.1306 52.422C21.1306 52.624 20.9028 52.682 20.5612 52.682C18.9381 52.682 17.7701 52.5955 17.3146 52.5955C17.0868 52.5955 15.8907 52.682 14.6094 52.682C14.2677 52.682 14.0399 52.653 14.0399 52.422C14.0399 52.2775 14.211 52.162 14.4388 52.162C14.7804 52.162 15.236 52.133 15.5782 52.0465C16.2329 51.873 16.3187 51.2091 16.3468 49.0717L16.5746 34.5164C16.5746 34.0255 16.7451 33.679 17.0015 33.679C17.3151 33.679 17.6562 34.0545 18.0837 34.4874C18.3973 34.8054 22.1561 38.7037 25.8016 42.314C27.5104 44.018 30.8423 47.4833 31.2125 47.8303H31.3264L31.07 36.9138C31.0414 35.4119 30.8137 34.9789 30.2156 34.748C29.8454 34.604 29.2473 34.604 28.9056 34.604C28.5926 34.604 28.5068 34.4885 28.5068 34.344C28.5068 34.142 28.7632 34.113 29.1334 34.113C30.4434 34.113 31.782 34.171 32.3228 34.171C32.6078 34.171 33.5475 34.113 34.7722 34.113C35.1138 34.113 35.3416 34.142 35.3416 34.344C35.3416 34.4885 35.1991 34.604 34.9141 34.604C34.6578 34.604 34.4586 34.604 34.145 34.6905C33.4617 34.893 33.2625 35.326 33.2339 36.7119L32.9489 52.1916C32.9489 52.74 32.7497 52.971 32.5506 52.971C32.1231 52.971 31.782 52.711 31.5251 52.451C29.9587 50.9781 26.826 47.9458 24.2061 45.3754C21.4723 42.7185 18.8237 39.7437 18.3396 39.3107H18.2543L18.5387 49.3322ZM40.7505 52.3645C40.3521 52.191 40.2663 52.0755 40.2663 51.5271C40.2663 50.1986 40.3802 48.6682 40.4088 48.2638C40.4088 47.8883 40.5227 47.6283 40.7224 47.6283C40.9502 47.6283 40.9788 47.8593 40.9788 48.0328C40.9788 48.3508 41.0641 48.8702 41.2066 49.3037C41.7474 51.1231 43.6273 51.7296 45.1937 51.7296C47.3581 51.7296 48.668 50.3437 48.668 48.6108C48.668 47.5423 48.4117 46.4739 46.1906 45.1455L44.7381 44.279C41.7765 42.5171 40.8082 40.8712 40.8082 38.7048C40.8082 35.7014 43.6559 33.7665 47.1303 33.7665C48.7538 33.7665 50.0352 33.9975 50.6899 34.171C50.9177 34.229 51.0316 34.3155 51.0316 34.4885C51.0316 34.8065 50.9458 35.4989 50.9458 37.4343C50.9458 37.9543 50.8319 38.2138 50.6322 38.2138C50.4616 38.2138 50.3758 38.0693 50.3758 37.7808C50.3758 37.5498 50.2619 36.7994 49.7211 36.1634C49.3508 35.7014 48.5536 35.0085 46.9301 35.0085C45.1359 35.0085 43.5129 35.9614 43.5129 37.6363C43.5129 38.7338 43.9118 39.6002 46.1609 40.8706L47.1864 41.4481C50.4897 43.2965 51.5152 45.1734 51.5152 47.3973C51.5152 49.2167 50.8319 50.6896 49.0092 51.989C47.8131 52.8555 46.1609 53 44.8229 53C43.3709 53 41.8327 52.8555 40.7505 52.3645ZM58.1218 41.2166C58.1218 37.4913 58.1217 36.7983 58.0937 36.0184C58.0365 35.1809 57.7801 34.8919 57.2393 34.719C56.9543 34.6325 56.6412 34.6035 56.3282 34.6035C56.0718 34.6035 55.9293 34.5455 55.9293 34.3145C55.9293 34.17 56.1285 34.112 56.5273 34.112C57.467 34.112 59.1759 34.17 59.8878 34.17C60.5144 34.17 62.1375 34.112 63.1058 34.112C63.4188 34.112 63.6185 34.17 63.6185 34.3145C63.6185 34.5455 63.476 34.6035 63.2197 34.6035C62.9633 34.6035 62.7641 34.6325 62.4796 34.6899C61.7963 34.8054 61.5966 35.1524 61.5399 36.0184C61.4833 36.7983 61.4833 37.4913 61.4833 41.2166V45.5489C61.4833 47.9173 61.4833 49.8812 61.5971 50.9206C61.6824 51.5851 61.8535 51.96 62.5941 52.0755C62.9357 52.1335 63.5052 52.1625 63.8754 52.1625C64.1604 52.1625 64.2738 52.307 64.2738 52.4225C64.2738 52.5955 64.0746 52.6825 63.7896 52.6825C62.138 52.6825 60.4291 52.596 59.7458 52.596C59.1764 52.596 57.4675 52.6825 56.4712 52.6825C56.1576 52.6825 55.987 52.596 55.987 52.4225C55.987 52.307 56.0723 52.1625 56.3859 52.1625C56.7561 52.1625 57.0406 52.1335 57.2684 52.0755C57.7811 51.96 57.9236 51.6136 58.0089 50.8916C58.1228 49.8812 58.1228 47.9173 58.1228 45.5489L58.1218 41.2166ZM74.2689 43.9315C74.2689 46.5308 74.2975 48.4077 74.3261 48.8987C74.3541 49.5052 74.4119 50.3716 74.611 50.6316C74.9246 51.0936 75.921 51.6136 77.8857 51.6136C80.164 51.6136 81.8442 51.2096 83.3539 49.9387C84.9769 48.5812 85.4897 46.3863 85.4897 43.8455C85.4897 40.7267 84.265 38.7048 83.1542 37.7233C80.8473 35.644 78.1135 35.384 76.1488 35.384C75.636 35.384 74.8102 35.4414 74.6105 35.5569C74.3827 35.6434 74.2969 35.7594 74.2969 36.0479C74.2683 36.8854 74.2683 38.9073 74.2683 40.8416L74.2689 43.9315ZM70.9084 41.2166C70.9084 37.4913 70.9084 36.7983 70.8798 36.0184C70.8226 35.1809 70.5948 34.9209 69.7976 34.6899C69.5979 34.6325 69.1709 34.6035 68.8007 34.6035C68.5443 34.6035 68.3737 34.5164 68.3737 34.3435C68.3737 34.1705 68.5729 34.1125 68.9432 34.1125C70.2531 34.1125 71.8481 34.1705 72.56 34.1705C73.3286 34.1705 75.1233 34.1125 76.6324 34.1125C79.7651 34.1125 83.9795 34.1125 86.7133 36.9138C87.9666 38.1848 89.0769 40.2352 89.0769 43.152C89.0769 46.2424 87.7669 48.5812 86.343 49.9967C85.2042 51.1516 82.5551 52.8845 77.9419 52.8845C77.0308 52.8845 75.9486 52.798 74.9517 52.74C73.9548 52.653 73.0436 52.5955 72.417 52.5955C72.132 52.5955 71.5912 52.6245 70.9931 52.6245C70.3951 52.653 69.7685 52.682 69.2557 52.682C68.9426 52.682 68.7716 52.5955 68.7716 52.422C68.7716 52.3065 68.8568 52.162 69.1699 52.162C69.5402 52.162 69.8251 52.133 70.0529 52.075C70.5657 51.9595 70.7076 51.4975 70.7934 50.7756C70.9073 49.7362 70.9073 47.8013 70.9073 45.5484L70.9084 41.2166ZM95.4842 41.2166C95.4842 37.4913 95.4842 36.7983 95.4556 36.0184C95.3984 35.1809 95.1712 34.9209 94.3734 34.6899C94.1742 34.6325 93.7468 34.6035 93.3765 34.6035C93.1207 34.6035 92.9496 34.5164 92.9496 34.3435C92.9496 34.1705 93.1493 34.1125 93.519 34.1125C94.829 34.1125 96.4239 34.1705 97.1358 34.1705C97.9331 34.1705 103.487 34.199 103.971 34.1705C104.427 34.1415 104.825 34.055 105.024 34.026C105.167 33.997 105.309 33.9105 105.423 33.9105C105.566 33.9105 105.594 34.026 105.594 34.1415C105.594 34.315 105.452 34.604 105.395 35.7299C105.366 35.9899 105.309 37.0583 105.252 37.3468C105.223 37.4623 105.167 37.7513 104.967 37.7513C104.796 37.7513 104.767 37.6358 104.767 37.4333C104.767 37.2603 104.739 36.8268 104.597 36.5378C104.397 36.1049 104.198 35.7584 102.945 35.6424C102.518 35.5844 99.528 35.5269 99.0153 35.5269C98.9014 35.5269 98.8447 35.6134 98.8447 35.7579V41.8225C98.8447 41.967 98.8733 42.0825 99.0153 42.0825C99.5847 42.0825 102.831 42.0825 103.401 42.025C103.999 41.967 104.369 41.9096 104.597 41.6496C104.797 41.4761 104.882 41.3316 104.996 41.3316C105.11 41.3316 105.195 41.4471 105.195 41.5916C105.195 41.736 105.138 42.14 104.996 43.3825C104.938 43.8735 104.882 44.8554 104.882 45.0289C104.882 45.2309 104.853 45.5779 104.626 45.5779C104.455 45.5779 104.398 45.4914 104.398 45.3754C104.369 45.1154 104.369 44.7979 104.312 44.4804C104.17 43.9895 103.856 43.614 102.917 43.5275C102.462 43.4695 99.6138 43.412 98.9872 43.412C98.8728 43.412 98.8447 43.5275 98.8447 43.672V45.6359C98.8447 46.4734 98.8161 48.5527 98.8447 49.2747C98.9019 50.9496 99.6705 51.3251 102.234 51.3251C102.888 51.3251 103.943 51.2961 104.597 51.0071C105.224 50.7186 105.509 50.1987 105.68 49.1877C105.737 48.9277 105.793 48.8122 105.964 48.8122C106.164 48.8122 106.192 49.1297 106.192 49.3897C106.192 49.9381 105.993 51.613 105.85 52.104C105.68 52.7395 105.452 52.7395 104.512 52.7395C102.633 52.7395 101.123 52.711 99.8988 52.6525C98.6741 52.624 97.7339 52.595 96.9939 52.595C96.7089 52.595 96.1681 52.624 95.57 52.624C94.972 52.6525 94.3453 52.6815 93.8326 52.6815C93.5195 52.6815 93.349 52.595 93.349 52.4215C93.349 52.306 93.4342 52.1615 93.7473 52.1615C94.1176 52.1615 94.4025 52.1325 94.6303 52.0745C95.1431 51.959 95.285 51.497 95.3708 50.7751C95.4847 49.7356 95.4847 47.8007 95.4847 45.5478L95.4842 41.2166ZM115.704 43.123C115.704 43.383 115.76 43.4695 115.931 43.556C116.472 43.7295 117.213 43.787 117.839 43.787C118.836 43.787 119.178 43.7005 119.605 43.3825C120.374 42.834 121.229 41.7651 121.229 39.7437C121.229 36.2784 118.893 35.3829 117.412 35.3829C116.786 35.3829 116.188 35.4114 115.931 35.4694C115.76 35.5274 115.704 35.6134 115.704 35.8159V43.123ZM112.514 41.2166C112.514 37.4913 112.514 36.7983 112.485 36.0184C112.428 35.1809 112.2 34.9209 111.403 34.6899C111.204 34.6325 110.777 34.6035 110.407 34.6035C110.15 34.6035 109.98 34.5164 109.98 34.3435C109.98 34.1705 110.179 34.1125 110.549 34.1125C111.859 34.1125 113.454 34.1705 113.966 34.1705C114.821 34.1705 117.099 34.1125 117.868 34.1125C119.463 34.1125 121.285 34.257 122.623 35.1525C123.335 35.6434 124.389 36.8854 124.389 38.5313C124.389 40.3507 123.364 41.9681 120.915 43.9605C123.136 46.7328 124.902 48.9567 126.411 50.4871C127.806 51.902 128.69 52.0175 129.088 52.104C129.345 52.162 129.487 52.162 129.686 52.162C129.886 52.162 130 52.3065 130 52.422C130 52.624 129.829 52.682 129.516 52.682H127.124C125.728 52.682 125.045 52.5375 124.39 52.191C123.308 51.6426 122.368 50.4871 120.973 48.5812C119.976 47.2528 118.922 45.6064 118.609 45.2309C118.466 45.0864 118.324 45.0579 118.153 45.0579L115.903 45.0004C115.789 45.0004 115.704 45.0579 115.704 45.2024V45.5489C115.704 47.8303 115.732 49.7367 115.846 50.7761C115.931 51.4981 116.045 51.96 116.815 52.0755C117.185 52.1335 117.726 52.1625 118.039 52.1625C118.238 52.1625 118.353 52.307 118.353 52.4225C118.353 52.5955 118.153 52.6825 117.84 52.6825C116.388 52.6825 114.308 52.596 113.938 52.596C113.454 52.596 111.859 52.6825 110.862 52.6825C110.549 52.6825 110.378 52.596 110.378 52.4225C110.378 52.307 110.463 52.1625 110.777 52.1625C111.147 52.1625 111.432 52.1335 111.659 52.0755C112.172 51.96 112.314 51.4981 112.399 50.7761C112.513 49.7367 112.513 47.8018 112.513 45.5489L112.514 41.2166Z" fill="#BFC5CF"></path></svg>