<svg xmlns:xlink="http://www.w3.org/1999/xlink" width="9" height="16" viewBox="0 0 9 16" fill="none" xmlns="http://www.w3.org/2000/svg"><path d="M8.39122 0.00326962L6.33533 0C4.0256 0 2.53296 1.51792 2.53296 3.8673V5.65039H0.465847C0.287225 5.65039 0.142578 5.79392 0.142578 5.97097V8.55446C0.142578 8.73151 0.28739 8.87488 0.465847 8.87488H2.53296V15.3938C2.53296 15.5709 2.6776 15.7143 2.85622 15.7143H5.55321C5.73184 15.7143 5.87648 15.5707 5.87648 15.3938V8.87488H8.29342C8.47204 8.87488 8.61668 8.73151 8.61668 8.55446L8.61767 5.97097C8.61767 5.88596 8.58353 5.80455 8.523 5.74439C8.46247 5.68423 8.38 5.65039 8.29424 5.65039H5.87648V4.13884C5.87648 3.41233 6.05115 3.04352 7.00595 3.04352L8.39089 3.04303C8.56935 3.04303 8.71399 2.89949 8.71399 2.72261V0.323692C8.71399 0.146969 8.56951 0.00359658 8.39122 0.00326962Z" fill="#232323" fill-opacity="0.5"></path></svg>