<svg xmlns:xlink="http://www.w3.org/1999/xlink" width="145" height="60" viewBox="0 0 145 60" fill="none" xmlns="http://www.w3.org/2000/svg"><path d="M29.6983 14.441C21.2632 14.3892 14.4415 21.1583 14.3938 29.6255C14.3461 38.0048 21.1301 44.8468 29.5185 44.8797C37.8879 44.9116 44.6878 38.1265 44.7246 29.7053C44.7603 21.3638 37.9962 14.4919 29.6983 14.441ZM29.5483 41.9306C22.811 41.9236 17.3353 36.4006 17.3532 29.6314C17.3711 22.8763 22.8338 17.4131 29.5691 17.4161C36.2985 17.4181 41.7573 22.8962 41.7642 29.6524C41.7702 36.4215 36.2836 41.9366 29.5483 41.9306Z" fill="#BFC5CF"></path><path d="M121.024 24.7891C121.001 24.8918 120.899 24.8779 120.82 24.8779C119.646 24.8789 118.471 24.8729 117.296 24.8839C117.062 24.8859 117.029 24.7372 116.985 24.5776C116.841 24.0548 116.7 23.531 116.54 22.9464C116.269 23.2567 116.074 23.5041 115.855 23.7276C114.457 25.1512 112.78 25.4795 110.929 24.8839C109.598 24.4559 108.839 23.2687 108.806 21.6624C108.775 20.1839 108.795 18.7054 108.793 17.2268C108.792 16.3798 108.773 15.5318 108.803 14.6858C108.815 14.3326 108.691 14.1431 108.389 13.9924C108.006 13.7999 107.644 13.5635 107.272 13.349C107.196 13.3051 107.121 13.2532 107.142 13.1614C107.166 13.0586 107.268 13.0756 107.346 13.0756C108.753 13.0746 110.16 13.0796 111.565 13.0706C111.865 13.0686 111.815 13.2622 111.815 13.4387C111.816 14.7018 111.816 15.9638 111.816 17.2259C111.816 18.455 111.815 19.6851 111.817 20.9142C111.818 21.1626 111.817 21.414 111.847 21.6604C112.075 23.531 113.583 24.2952 115.247 23.3854C115.406 23.2986 115.557 23.1948 115.702 23.0851C116.224 22.692 116.526 22.249 116.506 21.5058C116.443 19.2321 116.475 16.9555 116.492 14.6798C116.495 14.3307 116.389 14.1361 116.083 13.9855C115.713 13.8039 115.366 13.5744 115.01 13.3649C114.926 13.315 114.818 13.2662 114.869 13.1444C114.906 13.0566 115.009 13.0746 115.09 13.0746C116.48 13.0746 117.87 13.0796 119.259 13.0706C119.636 13.0676 119.527 13.331 119.527 13.5206C119.533 15.8122 119.531 18.1048 119.531 20.3974C119.531 21.3771 119.54 22.3578 119.525 23.3375C119.52 23.6178 119.592 23.7944 119.847 23.9341C120.21 24.1316 120.547 24.3741 120.895 24.5975C120.967 24.6434 121.045 24.6963 121.024 24.7891Z" fill="#BFC5CF"></path><path d="M96.7088 24.786C96.6859 24.8888 96.5866 24.8778 96.5061 24.8778C95.3319 24.8788 94.1567 24.8728 92.9815 24.8838C92.7421 24.8858 92.7252 24.7292 92.6805 24.5705C92.5355 24.0468 92.3914 23.523 92.2325 22.9503C91.9623 23.2536 91.7437 23.522 91.5013 23.7674C90.1215 25.1562 88.4714 25.4625 86.6555 24.8968C85.3184 24.4808 84.5246 23.2985 84.4948 21.7032C84.4571 19.6939 84.4084 17.6796 84.5038 15.6743C84.5564 14.5929 84.3021 13.8775 83.2531 13.5134C83.0882 13.4555 82.8696 13.3877 82.812 13.1652C82.8806 13.0475 82.9888 13.0754 83.0832 13.0744C84.4402 13.0734 85.7972 13.0874 87.1532 13.0654C87.5088 13.0594 87.5059 13.23 87.5049 13.4884C87.4989 15.9138 87.4999 18.3391 87.5039 20.7654C87.5039 21.0637 87.5178 21.363 87.5466 21.6603C87.7165 23.3733 88.8956 24.1276 90.5298 23.5659C91.1417 23.3554 91.6176 22.9523 92.0288 22.4595C92.16 22.3018 92.1699 22.1332 92.1699 21.9487C92.1679 19.4894 92.1639 17.0312 92.1759 14.5719C92.1768 14.2946 92.0745 14.1549 91.846 14.0332C91.4517 13.8237 91.0732 13.5862 90.6877 13.3607C90.6162 13.3188 90.5278 13.2829 90.5417 13.1832C90.5626 13.0395 90.6867 13.0764 90.7761 13.0754C92.1659 13.0734 93.5557 13.0804 94.9455 13.0704C95.3259 13.0674 95.2107 13.3318 95.2117 13.5184C95.2167 16.3927 95.2147 19.2669 95.2147 22.1412C95.2147 22.5563 95.2306 22.9723 95.2087 23.3873C95.1968 23.6357 95.2802 23.7824 95.4928 23.9051C95.8654 24.1196 96.221 24.364 96.5846 24.5935C96.6581 24.6404 96.7286 24.6953 96.7088 24.786Z" fill="#BFC5CF"></path><path d="M81.886 12.9397C81.7042 12.9876 81.6436 12.798 81.5601 12.6843C80.7406 11.5789 79.919 10.4755 79.1144 9.35911C78.9415 9.11868 78.7617 9.02291 78.4637 9.0259C76.9914 9.04286 75.5182 9.04386 74.046 9.0259C73.7181 9.02191 73.6347 9.11569 73.6367 9.43893C73.6506 11.6487 73.6496 13.8585 73.6387 16.0683C73.6367 16.3776 73.7003 16.5442 74.04 16.4833C74.0728 16.4783 74.1066 16.4793 74.1393 16.4833C75.847 16.7277 77.3491 16.215 78.7577 15.2772C79.311 14.908 79.3498 14.9579 79.3498 15.6273C79.3498 16.4414 79.3339 17.2565 79.3557 18.0696C79.3677 18.5056 79.2127 18.5076 78.8968 18.332C78.2312 17.9628 77.5547 17.6157 76.8911 17.2435C76.6229 17.0919 76.3537 17.024 76.0447 17.031C75.3672 17.047 74.6877 17.048 74.0102 17.031C73.742 17.024 73.6357 17.0819 73.6377 17.3812C73.6506 19.3416 73.6496 21.302 73.6387 23.2623C73.6367 23.5207 73.7301 23.6385 73.9585 23.7372C74.5188 23.9816 75.0672 24.255 75.6165 24.5224C75.7139 24.5693 75.8609 24.5912 75.8421 24.7468C75.8162 24.9574 75.6394 24.8745 75.5281 24.8745C73.3108 24.8795 71.0935 24.8795 68.8763 24.8755C68.761 24.8745 68.5872 24.9534 68.5534 24.7518C68.5286 24.6062 68.6696 24.5693 68.764 24.5094C68.8345 24.4655 68.91 24.4306 68.9816 24.3887C69.4485 24.1123 70.0862 23.9378 70.3336 23.5267C70.569 23.1336 70.4041 22.4952 70.4051 21.9644C70.4061 18.0436 70.4011 14.1229 70.4141 10.2011C70.415 9.85594 70.3197 9.65741 70.0038 9.50976C69.5855 9.31322 69.1912 9.06581 68.7898 8.83535C68.6815 8.7725 68.5117 8.7296 68.5554 8.56C68.6031 8.37543 68.7779 8.46123 68.8951 8.46123C71.029 8.45624 73.1638 8.45724 75.2987 8.45724C77.3669 8.45724 79.4352 8.47021 81.5035 8.44627C81.9287 8.44128 82.0171 8.56997 82.0082 8.97203C81.9803 10.1672 82.0012 11.3644 81.9933 12.5606C81.9923 12.6893 82.0896 12.8868 81.886 12.9397Z" fill="#BFC5CF"></path><path d="M84.5791 50.283C84.3188 50.1064 84.0715 49.9058 83.7933 49.7622C83.2628 49.4878 82.9857 49.0558 82.7691 48.5011C80.9671 43.885 79.1332 39.2808 77.3213 34.6686C77.1951 34.3474 77.0501 34.2037 76.6835 34.2227C76.007 34.2576 75.3275 34.2326 74.649 34.2326C73.7589 34.2326 73.7231 34.2516 74.1374 35.0397C74.4404 35.6174 74.4235 36.1102 74.1861 36.7178C72.9423 39.8973 71.6946 43.0779 70.5621 46.2983C70.0117 47.8626 69.2816 49.2205 67.8898 50.1583C67.863 50.1772 67.8382 50.2002 67.8143 50.2231C67.72 50.3119 67.5729 50.3847 67.6176 50.5394C67.6693 50.7189 67.8402 50.6371 67.9574 50.6371C69.529 50.6431 71.1005 50.6431 72.6731 50.6381C72.7933 50.6371 72.9671 50.7159 73.0287 50.5643C73.1072 50.3698 72.9036 50.3189 72.7893 50.246C72.0353 49.7662 71.2803 49.2873 70.5174 48.8244C70.3078 48.6977 70.2671 48.5879 70.3604 48.3495C70.7975 47.2391 71.2168 46.1217 71.625 45.0004C71.7095 44.7679 71.8347 44.711 72.0631 44.712C73.9158 44.719 75.7696 44.721 77.6233 44.71C77.8855 44.708 77.9968 44.8088 78.0872 45.0413C78.6067 46.3861 79.1352 47.728 79.6776 49.0638C79.7849 49.3282 79.7184 49.4389 79.4809 49.5537C79.019 49.7762 78.571 50.0266 78.121 50.271C78.0107 50.3308 77.8339 50.3698 77.8716 50.5354C77.9123 50.7169 78.0921 50.6371 78.2094 50.6381C79.2524 50.6441 80.2945 50.6411 81.3366 50.6411C82.3797 50.6411 83.4218 50.6431 84.4649 50.6381C84.5672 50.6381 84.7152 50.702 84.7609 50.5453C84.8016 50.4027 84.6735 50.3468 84.5791 50.283ZM71.9598 44.1394C72.9036 41.6522 73.8364 39.194 74.801 36.649C75.7934 39.178 76.753 41.6263 77.7395 44.1394H71.9598Z" fill="#BFC5CF"></path><path d="M136.829 49.7294C136.549 49.5708 136.459 49.3753 136.461 49.051C136.476 46.8093 136.472 44.5675 136.466 42.3247C136.465 41.9776 136.458 41.6224 136.389 41.2842C136.101 39.8585 135.009 38.9187 133.316 38.6743C131.237 38.375 129.197 38.7401 127.16 39.1013C126.91 39.1462 126.896 39.2818 126.907 39.4864C126.96 40.5479 126.998 41.6104 127.053 42.6719C127.06 42.7996 126.969 43.0032 127.171 43.049C127.32 43.083 127.376 42.9054 127.453 42.8066C128.165 41.8898 128.929 41.0078 129.56 40.0381C130.058 39.2699 130.738 39.0893 131.541 39.0813C132.554 39.0713 133.184 39.6191 133.361 40.6187C133.486 41.3121 133.393 42.0115 133.446 42.7049C133.476 43.0929 133.351 43.2536 132.975 43.3404C131.735 43.6277 130.503 43.946 129.27 44.2572C128.495 44.4538 127.763 44.7441 127.113 45.227C125.261 46.6017 125.536 49.5269 127.613 50.5166C129.498 51.4155 131.808 50.8688 133.123 49.2127C133.231 49.078 133.342 48.9443 133.491 48.7617C133.654 49.3414 133.8 49.8452 133.94 50.351C133.98 50.4967 133.993 50.6443 134.204 50.6433C135.456 50.6393 136.708 50.6413 137.96 50.6413C137.981 50.5904 138.002 50.5386 138.023 50.4877C137.626 50.2323 137.239 49.9609 136.829 49.7294ZM133.439 47.8588C133.439 47.9406 133.441 48.0294 133.412 48.1032C133.073 48.9662 131.631 49.7504 130.687 49.5898C129.657 49.4132 129.012 48.5961 128.966 47.4069C128.909 45.9852 129.509 45.0055 130.83 44.4937C131.66 44.1734 132.521 43.938 133.44 43.6407C133.44 45.1023 133.44 46.481 133.439 47.8588Z" fill="#BFC5CF"></path><path d="M144.821 21.3459C144.626 21.2532 144.525 21.302 144.425 21.4776C144.211 21.8538 143.942 22.19 143.641 22.5022C141.546 24.6751 138.174 23.9199 137.219 21.0656C137.006 20.4301 136.932 19.7726 136.861 19.1122C136.827 18.8039 136.906 18.7141 137.223 18.7191C138.447 18.7371 139.672 18.7261 140.895 18.7261H143.825C145.022 18.7261 145.04 18.7251 144.961 17.5329C144.848 15.8508 144.225 14.4391 142.72 13.5442C140.772 12.385 137.651 12.5945 135.863 13.9952C134.31 15.2103 133.71 16.8744 133.617 18.784C133.438 22.4214 135.839 25.0433 139.462 25.155C141.964 25.2328 144.028 23.9379 144.899 21.747C144.962 21.5894 145.057 21.4577 144.821 21.3459ZM136.853 17.9689C136.936 16.8046 137.051 15.6483 137.644 14.6107C138.069 13.8665 138.665 13.3557 139.571 13.3208C140.361 13.2898 140.952 13.6221 141.313 14.3224C141.911 15.4837 141.916 16.7517 141.934 18.0148C141.938 18.2552 141.769 18.2143 141.626 18.2153C140.882 18.2163 140.138 18.2153 139.393 18.2153C138.649 18.2153 137.905 18.2143 137.161 18.2163C136.989 18.2173 136.834 18.2332 136.853 17.9689Z" fill="#BFC5CF"></path><path d="M94.8202 34.6258C94.7736 35.5705 94.7398 36.5173 94.6961 37.4631C94.6911 37.5678 94.7477 37.7205 94.5928 37.7574C94.4477 37.7923 94.405 37.6456 94.3454 37.5529C93.795 36.7049 93.2487 35.8549 92.7003 35.0049C92.2175 34.2566 91.2042 34.3075 90.7612 35.1036C90.5625 35.4618 90.4999 35.8589 90.487 36.2569C90.4621 37.0201 90.481 37.7843 90.4562 38.5485C90.4463 38.8518 90.6042 38.8538 90.8247 38.8528C91.7675 38.8468 92.7112 38.8408 93.654 38.8578C93.8338 38.8608 94.1517 38.6832 94.1398 39.1212C94.1288 39.5152 93.8447 39.3566 93.6748 39.3596C92.7321 39.3736 91.7884 39.3786 90.8456 39.3596C90.5446 39.3536 90.4542 39.4314 90.4552 39.7447C90.4671 42.9003 90.4661 46.0568 90.4562 49.2124C90.4552 49.4788 90.5605 49.5875 90.785 49.6813C91.388 49.9317 91.9821 50.2051 92.5791 50.4704C92.5642 50.5153 92.5483 50.5612 92.5334 50.6071H85.8209C86.2461 50.2001 86.6753 49.9956 87.0756 49.7661C87.3577 49.6055 87.4521 49.4259 87.4501 49.0997C87.4362 46.0099 87.4362 42.9202 87.4501 39.8305C87.4521 39.4713 87.3836 39.3167 86.9941 39.3586C86.6504 39.3955 86.2997 39.3616 85.9521 39.3686C85.7703 39.3726 85.6401 39.3666 85.6411 39.1162C85.6411 38.8817 85.7355 38.8398 85.9372 38.8468C86.3007 38.8588 86.6663 38.8289 87.0279 38.8558C87.3498 38.8807 87.4769 38.787 87.4491 38.4478C87.4223 38.1355 87.4412 37.8172 87.4601 37.502C87.5842 35.4748 88.819 34.1818 90.8337 33.9932C92.0774 33.8765 93.3093 34.0222 94.5381 34.2217C94.8123 34.2656 94.8312 34.4033 94.8202 34.6258Z" fill="#BFC5CF"></path><path d="M124.704 47.7259C123.725 49.9986 121.478 51.2267 118.92 50.8965C115.941 50.5124 113.966 48.3874 113.782 45.3695C113.692 43.9129 113.889 42.5152 114.672 41.2551C115.727 39.5561 117.331 38.765 119.257 38.5954C120.871 38.4527 122.453 38.755 124.029 39.0743C124.266 39.1232 124.246 39.2658 124.244 39.4384C124.237 40.02 124.241 40.6007 124.241 41.1813H124.112C124.112 41.746 124.117 42.3097 124.108 42.8733C124.106 42.9941 124.176 43.1796 124.006 43.2175C123.856 43.2515 123.804 43.0689 123.734 42.9651C123.031 41.9405 122.3 40.9329 121.648 39.8754C121.184 39.1222 120.512 39.0144 119.77 39.1202C118.8 39.2578 118.199 39.9253 117.768 40.7473C117.067 42.0842 116.945 43.5318 117.029 45.0083C117.079 45.8763 117.256 46.7173 117.646 47.5025C118.783 49.7861 121.618 50.257 123.436 48.4632C123.744 48.1599 124.014 47.8257 124.231 47.4486C124.323 47.289 124.376 47.0755 124.665 47.2321C124.972 47.3987 124.769 47.5743 124.704 47.7259Z" fill="#BFC5CF"></path><path d="M102.677 13.9812C102.691 16.604 102.683 19.2278 102.689 21.8516C102.689 22.116 102.717 22.3833 102.764 22.6437C102.969 23.783 104.032 24.209 104.979 23.5356C105.238 23.3511 105.454 23.1196 105.616 22.8472C105.728 22.6577 105.834 22.6577 106.015 22.7495C106.257 22.8712 106.137 22.9969 106.062 23.1445C104.945 25.3274 102.757 25.4361 101.322 24.9014C100.268 24.5093 99.71 23.6783 99.6841 22.5699C99.6374 20.6115 99.6593 18.6522 99.6543 16.6928C99.6523 15.7959 99.6374 14.898 99.6623 14.0021C99.6712 13.6619 99.552 13.5761 99.2411 13.5951C98.8785 13.6171 98.5139 13.6021 98.1493 13.5991C98.0371 13.5981 97.903 13.6141 97.901 13.4405C97.899 13.2978 97.8543 13.1302 98.0589 13.0753C98.0907 13.0664 98.1225 13.0514 98.1543 13.0484C99.2719 12.9367 100.021 12.2204 100.761 11.4741C101.228 11.0042 101.723 10.5613 102.213 10.1163C102.329 10.0106 102.425 9.79209 102.597 9.85494C102.787 9.92577 102.678 10.1482 102.68 10.2989C102.69 11.096 102.699 11.8941 102.677 12.6902C102.669 12.9955 102.751 13.0863 103.06 13.0833C104.051 13.0723 105.043 13.0943 106.034 13.1043C106.09 13.1492 106.146 13.1941 106.203 13.2389V13.4285C106.147 13.4764 106.091 13.5233 106.035 13.5702C105.044 13.5801 104.052 13.6021 103.061 13.5911C102.755 13.5881 102.676 13.6739 102.677 13.9812Z" fill="#BFC5CF"></path><path d="M132.148 16.6001C132.145 16.6779 132.167 16.7806 132.066 16.8106C131.922 16.8525 131.864 16.7248 131.795 16.64C131.183 15.8967 130.558 15.1644 129.972 14.4022C129.745 14.1069 129.553 14.066 129.228 14.2266C128.501 14.5878 127.992 15.1545 127.588 15.8398C127.494 15.9975 127.512 16.1591 127.512 16.3227C127.511 18.6662 127.517 21.0097 127.504 23.3532C127.502 23.6615 127.579 23.8281 127.883 23.9398C128.408 24.1344 128.915 24.3828 129.431 24.6072C129.508 24.6412 129.595 24.6751 129.588 24.7739C129.581 24.8886 129.479 24.8766 129.4 24.8766C127.282 24.8726 125.164 24.8676 123.046 24.8606C123.022 24.8606 122.997 24.8207 122.892 24.731C123.345 24.4576 123.743 24.1982 124.16 23.9717C124.41 23.8351 124.487 23.6625 124.486 23.3781C124.475 20.469 124.475 17.5608 124.486 14.6526C124.488 14.3513 124.416 14.1638 124.137 14.0241C123.753 13.8326 123.392 13.5961 123.021 13.3776C122.938 13.3288 122.817 13.2938 122.838 13.1721C122.861 13.0334 122.992 13.0763 123.081 13.0763C124.273 13.0734 125.465 13.0803 126.657 13.0694C126.895 13.0664 126.961 13.1781 127.015 13.3806C127.165 13.9533 127.335 14.52 127.516 15.1535C127.89 14.5429 128.251 14.0121 128.751 13.5891C129.763 12.7332 130.917 12.816 132.099 13.0454C132.258 13.0763 132.255 13.1911 132.251 13.3108C132.216 14.4072 132.182 15.5036 132.148 16.6001Z" fill="#BFC5CF"></path><path d="M104.64 39.2C104.608 40.2296 104.579 41.2582 104.544 42.2877C104.54 42.3915 104.603 42.5431 104.447 42.585C104.311 42.6209 104.249 42.4873 104.178 42.4015C103.558 41.6452 102.93 40.895 102.328 40.1248C102.142 39.8864 101.985 39.8355 101.708 39.9622C100.941 40.3164 100.394 40.891 99.978 41.6133C99.8876 41.7699 99.9044 41.9326 99.9044 42.0962C99.9035 44.4376 99.9104 46.7791 99.8955 49.1206C99.8935 49.4348 99.9859 49.5934 100.276 49.7082C100.868 49.9416 101.445 50.213 102.067 50.4853C101.898 50.6938 101.774 50.638 101.669 50.638C99.6998 50.642 97.7319 50.643 95.7639 50.636C95.6358 50.635 95.4272 50.7427 95.3864 50.5342C95.3586 50.3916 95.5464 50.3227 95.6596 50.2848C96.7822 49.9117 96.9421 49.0966 96.9083 48.0122C96.8289 45.4911 96.8756 42.9651 96.8915 40.4411C96.8944 40.1119 96.8001 39.9253 96.513 39.7797C96.1305 39.5871 95.7649 39.3567 95.3964 39.1362C95.3179 39.0903 95.1987 39.0504 95.2454 38.9187C95.2821 38.8159 95.3845 38.8528 95.459 38.8518C96.666 38.8499 97.8739 38.8548 99.0809 38.8459C99.2925 38.8439 99.3591 38.9327 99.4077 39.1222C99.5548 39.6998 99.7236 40.2715 99.8995 40.899C100.133 40.5708 100.326 40.2705 100.546 39.9941C101.733 38.5107 102.911 38.5386 104.415 38.791C104.682 38.8359 104.646 39.0185 104.64 39.2Z" fill="#BFC5CF"></path><path d="M31.9345 6.1268C31.9176 8.33563 31.1825 10.2811 29.8314 12.009C29.6228 12.2754 29.5135 12.2884 29.289 12.016C26.4916 8.61996 26.4896 3.62066 29.287 0.204657C29.5006 -0.0557336 29.6089 -0.0786799 29.8265 0.199669C31.1884 1.94259 31.9275 3.903 31.9345 6.1268Z" fill="#BFC5CF"></path><path d="M17.0314 17.3903C12.6276 17.0162 8.99966 13.4006 8.61919 8.99594C8.59535 8.72358 8.63409 8.56595 8.91522 8.63978C13.1114 9.03685 16.1413 11.9999 17.0314 15.4897C17.1625 16.0025 17.233 16.5313 17.3264 17.0541C17.3681 17.2835 17.3463 17.4162 17.0314 17.3903Z" fill="#BFC5CF"></path><path d="M31.9353 53.2312C31.9204 55.442 31.1862 57.4064 29.8134 59.1463C29.6276 59.3827 29.5392 59.4386 29.3147 59.1643C26.4825 55.7004 26.4745 50.7889 29.3027 47.3041C29.4925 47.0706 29.5829 47.0078 29.8024 47.2861C31.1743 49.026 31.9174 50.9864 31.9353 53.2312Z" fill="#BFC5CF"></path><path d="M50.4991 9.01591C50.058 13.4604 46.5106 16.9971 42.0889 17.3822C42.072 17.3842 42.0561 17.3871 42.0402 17.3891C41.921 17.4091 41.8515 17.3951 41.8118 17.3612C41.8008 17.3512 41.7919 17.3393 41.7849 17.3263C41.7641 17.2854 41.7641 17.2325 41.77 17.1776C41.772 17.1587 41.775 17.1387 41.778 17.1198C41.7849 17.0819 41.7919 17.044 41.7959 17.01C42.1138 14.3284 43.2899 12.1246 45.4407 10.4735C46.8146 9.41895 48.3812 8.85429 50.0878 8.64678C50.3859 8.61086 50.5369 8.6368 50.4991 9.01591Z" fill="#BFC5CF"></path><path d="M58.8954 29.9338C55.4831 32.7371 50.5995 32.7521 47.1692 29.9687C46.8692 29.7243 46.8543 29.6086 47.1682 29.3651C48.8998 28.0203 50.8339 27.2781 52.9449 27.2881C55.2417 27.2871 57.1719 28.0463 58.8954 29.3981C59.1597 29.6056 59.1666 29.7103 58.8954 29.9338Z" fill="#BFC5CF"></path><path d="M12.0255 29.9029C8.75921 32.7601 3.36002 32.7442 0.145345 29.873C-0.150692 29.6086 0.0728257 29.5308 0.223824 29.4051C1.8858 28.0283 3.95706 27.2881 6.12667 27.2891C8.34893 27.2871 10.293 28.0543 12.0236 29.426C12.259 29.6126 12.2451 29.7103 12.0255 29.9029Z" fill="#BFC5CF"></path><path d="M17.3262 42.3465C16.9557 46.362 13.9109 49.748 9.9611 50.5282C9.62036 50.596 9.27366 50.628 8.93292 50.6978C8.65179 50.7547 8.58523 50.6509 8.61801 50.3845C9.05511 46.8858 10.8065 44.3198 13.9814 42.7715C14.9272 42.3106 15.9454 42.0851 17.0789 41.9414C17.359 41.8586 17.3511 42.0811 17.3262 42.3465Z" fill="#BFC5CF"></path><path d="M50.0751 50.689C45.5352 50.0495 42.4934 47.0406 41.8119 42.4842C41.7325 41.9525 41.7414 41.9395 42.1417 41.9605C46.481 42.3974 49.5456 45.575 50.3096 49.2653C50.3771 49.5906 50.4109 49.9218 50.4794 50.246C50.5549 50.5992 50.5142 50.7509 50.0751 50.689Z" fill="#BFC5CF"></path><path d="M112.773 50.6409H110.816C109.559 50.6409 108.3 50.6429 107.042 50.6369C106.905 50.6359 106.703 50.7247 106.642 50.5631C106.571 50.3765 106.797 50.3157 106.911 50.2758C107.99 49.8917 108.18 49.1165 108.143 48.0391C108.058 45.4991 108.109 42.9551 108.124 40.4122C108.126 40.1039 108.037 39.9283 107.766 39.7916C107.383 39.5981 107.017 39.3686 106.647 39.1512C106.565 39.1033 106.444 39.0654 106.464 38.9456C106.488 38.808 106.618 38.8529 106.706 38.8519C108.097 38.8499 109.487 38.8569 110.878 38.8459C111.267 38.8429 111.134 39.1172 111.134 39.2948C111.141 42.4354 111.156 45.5759 111.124 48.7165C111.118 49.316 111.246 49.7091 111.817 49.9585C112.122 50.0922 112.433 50.2618 112.773 50.6409Z" fill="#BFC5CF"></path><path d="M111.468 35.3303C111.405 35.4021 111.346 35.4799 111.277 35.5468C110.759 36.0585 110.231 36.5603 109.725 37.0821C109.551 37.2617 109.454 37.2397 109.293 37.0701C108.802 36.5563 108.302 36.0496 107.786 35.5597C107.587 35.3702 107.627 35.2614 107.802 35.0919C108.302 34.61 108.785 34.1092 109.277 33.6194C109.385 33.5116 109.471 33.3331 109.669 33.5326C110.228 34.0962 110.8 34.6459 111.367 35.2026C111.402 35.2375 111.428 35.2804 111.468 35.3303Z" fill="#BFC5CF"></path><path d="M106.203 13.239C106.146 13.194 106.089 13.1491 106.034 13.1041C106.14 13.0851 106.212 13.1111 106.203 13.239Z" fill="#BFC5CF"></path><path d="M106.035 13.5701C106.091 13.5232 106.147 13.4763 106.203 13.4284C106.215 13.5571 106.144 13.586 106.035 13.5701Z" fill="#BFC5CF"></path><path d="M31.7856 39.1241C31.1309 39.2807 31.1309 39.2807 31.1299 38.5973V37.9499H31.1458C31.1458 37.5508 31.0266 37.0979 31.1786 36.7697C31.3395 36.4215 31.87 36.4744 32.2286 36.3247C35.4582 34.9819 37.2583 31.4981 36.4586 28.1051C35.6529 24.6912 32.5197 22.3786 29.0388 22.628C25.6582 22.8705 22.8439 25.592 22.5171 28.9362C22.1743 32.4329 24.2883 35.6164 27.5924 36.5562C27.8745 36.637 28.0106 36.7288 27.9957 37.05C27.9679 37.6476 27.9699 38.2472 27.9947 38.8448C28.0086 39.1909 27.9093 39.2598 27.5765 39.178C23.8929 38.2771 21.4114 36.0364 20.3385 32.388C18.8146 27.2082 21.8554 21.8479 27.0311 20.4163C32.1472 19.0016 37.4321 22.0484 38.8408 27.2252C40.2604 32.4439 37.0437 37.8701 31.7856 39.1241Z" fill="#BFC5CF"></path><path d="M34.083 29.7361C34.0105 32.2781 32.0058 34.2315 29.5004 34.1986C26.9911 34.1667 25.0062 32.1265 25.045 29.6194C25.0847 27.0934 27.1043 25.0941 29.5918 25.118C32.0982 25.141 34.1536 27.254 34.083 29.7361Z" fill="#BFC5CF"></path></svg>