<svg xmlns:xlink="http://www.w3.org/1999/xlink" width="18" height="18" viewBox="0 0 18 18" fill="none" xmlns="http://www.w3.org/2000/svg"><path d="M9.28589 1.54687C11.5761 1.54687 11.8439 1.55357 12.7479 1.59375C13.585 1.63393 14.0404 1.77455 14.3417 1.88839C14.7435 2.04241 15.0247 2.22991 15.3261 2.53125C15.6274 2.83259 15.8149 3.11384 15.9689 3.51562C16.0895 3.81696 16.2234 4.27232 16.2636 5.10937C16.3037 6.01338 16.3104 6.28124 16.3104 8.57142C16.3104 10.8616 16.3037 11.1294 16.2636 12.0335C16.2234 12.8705 16.0828 13.3259 15.9689 13.6272C15.8149 14.029 15.6274 14.3102 15.3261 14.6116C15.0247 14.9129 14.7435 15.1004 14.3417 15.2544C14.0404 15.375 13.585 15.5089 12.7479 15.5491C11.8439 15.5893 11.5761 15.596 9.28589 15.596C6.99572 15.596 6.72786 15.5893 5.82385 15.5491C4.98679 15.5089 4.53144 15.3683 4.2301 15.2544C3.82831 15.1004 3.54706 14.9129 3.24572 14.6116C2.94439 14.3102 2.75689 14.029 2.60287 13.6272C2.48233 13.3259 2.3484 12.8705 2.30823 12.0335C2.26805 11.1294 2.26135 10.8616 2.26135 8.57142C2.26135 6.28124 2.26805 6.01338 2.30823 5.10937C2.3484 4.27232 2.48903 3.81696 2.60287 3.51562C2.75689 3.11384 2.94439 2.83259 3.24572 2.53125C3.54706 2.22991 3.82831 2.04241 4.2301 1.88839C4.53144 1.76785 4.98679 1.63393 5.82385 1.59375C6.72786 1.55357 6.99572 1.54687 9.28589 1.54687ZM9.28589 0C6.95554 0 6.66759 0.00669642 5.75018 0.0535714C4.83947 0.0937499 4.21671 0.241071 3.67429 0.44866C3.1118 0.669642 2.62965 0.957588 2.15421 1.43973C1.67876 1.92187 1.38412 2.39062 1.16314 2.95982C0.948852 3.50223 0.808227 4.12499 0.768049 5.0424C0.721174 5.95312 0.714478 6.24106 0.714478 8.57142C0.714478 10.9018 0.721174 11.1897 0.768049 12.1071C0.808227 13.0178 0.955549 13.6406 1.16314 14.1897C1.38412 14.7522 1.67207 15.2344 2.15421 15.7098C2.62965 16.1852 3.1118 16.4799 3.67429 16.7009C4.21671 16.9152 4.83947 17.0558 5.75688 17.096C6.67429 17.1361 6.96224 17.1495 9.29259 17.1495C11.6229 17.1495 11.9109 17.1428 12.8283 17.096C13.739 17.0558 14.3618 16.9085 14.9109 16.7009C15.4734 16.4799 15.9555 16.1919 16.431 15.7098C16.9064 15.2344 17.2011 14.7522 17.422 14.1897C17.6363 13.6473 17.777 13.0245 17.8171 12.1071C17.8573 11.1897 17.8707 10.9018 17.8707 8.57142C17.8707 6.24106 17.864 5.95312 17.8171 5.03571C17.777 4.12499 17.6296 3.50223 17.422 2.95312C17.2011 2.39062 16.9131 1.90848 16.431 1.43303C15.9488 0.957588 15.4667 0.669642 14.8975 0.44866C14.3551 0.234375 13.7323 0.0937499 12.8149 0.0535714C11.9042 0.00669642 11.6162 0 9.28589 0ZM9.28589 4.17187C6.85509 4.17187 4.88635 6.14062 4.88635 8.57142C4.88635 11.0022 6.85509 12.971 9.28589 12.971C11.7167 12.971 13.6854 11.0022 13.6854 8.57142C13.6854 6.14062 11.7167 4.17187 9.28589 4.17187ZM9.28589 11.4308C7.70554 11.4308 6.42652 10.1518 6.42652 8.57142C6.42652 6.99106 7.70554 5.71205 9.28589 5.71205C10.8662 5.71205 12.1453 6.99106 12.1453 8.57142C12.1453 10.1518 10.8662 11.4308 9.28589 11.4308ZM14.8908 3.99776C14.8908 4.56696 14.4287 5.02901 13.8595 5.02901C13.2904 5.02901 12.835 4.56696 12.835 3.99776C12.835 3.42857 13.297 2.96651 13.8662 2.96651C14.4354 2.96651 14.8908 3.42857 14.8908 3.99776Z" fill="#232323" fill-opacity="0.5"></path></svg>