<svg xmlns:xlink="http://www.w3.org/1999/xlink" width="147" height="23" viewBox="0 0 147 23" fill="none" xmlns="http://www.w3.org/2000/svg"><path fill-rule="evenodd" clip-rule="evenodd" d="M20.1 17.677C21.5083 15.7886 22.2668 13.5002 22.2639 11.1505C22.2639 5.07442 17.2659 0.128296 11.1316 0.128296C4.99726 0.128296 0 5.07734 0 11.1505C0 17.2237 4.99138 22.1727 11.1316 22.1727C13.4549 22.1764 15.7202 21.4545 17.6076 20.1092L20.4006 22.872L22.8783 20.4208L20.103 17.6711L20.1 17.677ZM17.5819 15.1835L13.4659 11.1096L10.9912 13.5644L15.0837 17.6157C13.8915 18.3332 12.5244 18.712 11.1301 18.7106C6.92075 18.7106 3.50007 15.3229 3.50007 11.1549C3.50007 6.98689 6.92369 3.59847 11.133 3.59847C15.3424 3.59847 18.7601 6.98981 18.7601 11.1542C18.7616 12.5812 18.3537 13.9783 17.5841 15.1835H17.5819Z" fill="#BFC5CF"></path><path fill-rule="evenodd" clip-rule="evenodd" d="M122.731 0.674438V4.17887H116.11V21.709H112.525V4.17887H105.907V0.674438H122.731Z" fill="#BFC5CF"></path><path fill-rule="evenodd" clip-rule="evenodd" d="M67.3878 0.674438H63.0836L54.8994 21.709H58.6567L60.1899 17.6112H70.2837L71.8154 21.709H75.5742L67.3878 0.674438ZM61.5548 14.3323L65.2394 4.83727L68.9144 14.3323H61.5548Z" fill="#BFC5CF"></path><path fill-rule="evenodd" clip-rule="evenodd" d="M147 4.17874L135.129 18.1573H147V21.7092H130.454V17.9719L142.366 4.17874H131.28V0.70929H147V4.17874Z" fill="#BFC5CF"></path><path fill-rule="evenodd" clip-rule="evenodd" d="M47.9586 0.674438V13.9811C47.9586 18.4929 44.2571 22.1615 39.703 22.1615C35.149 22.1615 31.4438 18.4914 31.4438 13.9811V0.674438H35.0262V13.9811C34.9476 16.579 37.0806 18.6914 39.7045 18.6914C42.3285 18.6914 44.4556 16.579 44.4041 13.9811V0.674438H47.9586Z" fill="#BFC5CF"></path><path fill-rule="evenodd" clip-rule="evenodd" d="M94.2577 14.5848C96.7648 13.3585 98.3546 10.8271 98.3604 8.05188C98.3604 4.19637 95.1514 0.752541 91.1574 0.674438H83.293V21.7082H86.8768V15.3739H90.1255L97.5167 22.79L100.008 20.352L94.2584 14.5855L94.2577 14.5848ZM90.8943 11.903H86.8768V4.20075H90.8951C93.0802 4.20075 94.8589 5.92777 94.8589 8.05261C94.8589 10.1774 93.0802 11.903 90.8951 11.903H90.8943Z" fill="#BFC5CF"></path></svg>