<svg xmlns:xlink="http://www.w3.org/1999/xlink" width="235" height="34" viewBox="0 0 235 34" fill="none" xmlns="http://www.w3.org/2000/svg"><path d="M88.2491 13.7334V28.2898H82.896V13.7334H77.4878V9.09952H93.6589V13.7319H88.2491V13.7334Z" fill="#BFC5CF"></path><path d="M106.154 22.5058H97.6552C97.8204 24.095 98.758 24.8075 100.112 24.8075C101.381 24.8075 102.43 24.5325 103.865 23.7926L105.769 26.9451C103.977 27.9859 102.126 28.589 99.8653 28.589C95.5048 28.589 93.1035 25.5185 93.1035 21.105C93.1035 16.1445 95.9177 13.5952 99.7261 13.5952C103.7 13.5952 106.184 16.1992 106.184 21.5441C106.184 21.9558 106.184 22.2581 106.154 22.5058ZM99.5869 17.2414C98.4551 17.2414 97.8204 18.0087 97.6552 19.4338H101.795C101.546 17.9813 101.049 17.2414 99.5869 17.2414Z" fill="#BFC5CF"></path><path d="M115.396 28.589C111.147 28.589 108.608 25.9029 108.608 21.0518C108.608 16.6383 110.872 13.5952 115.506 13.5952C118.237 13.5952 119.811 14.8562 121.081 16.8844L117.659 19.4611C116.97 18.2001 116.5 17.597 115.425 17.597C114.154 17.597 113.521 18.858 113.521 21.1323C113.521 23.4082 114.21 24.5857 115.562 24.5857C116.5 24.5857 117.162 24.0646 118.074 22.7215L121.22 25.1615C119.536 27.6303 117.962 28.589 115.396 28.589Z" fill="#BFC5CF"></path><path d="M132.336 28.2884V20.1191C132.336 18.2549 131.702 17.7627 130.681 17.7627C129.632 17.7627 128.997 18.2565 128.997 20.0644V28.2884H124.031V10.2786L128.997 8.30508V14.8563C129.907 14.1711 130.929 13.5953 132.641 13.5953C135.814 13.5953 137.333 15.7056 137.333 19.4886V28.2884H132.336Z" fill="#BFC5CF"></path><path d="M149.222 28.5889C143.482 28.5889 140.418 24.3668 140.418 18.6938C140.418 12.5271 144.061 8.79877 149.249 8.79877C153.997 8.79877 155.873 10.827 157.198 14.4459L152.342 16.3374C151.65 14.5553 150.99 13.4311 149.223 13.4311C146.989 13.4311 146.022 15.6507 146.022 18.6938C146.022 21.6276 146.96 23.9566 149.278 23.9566C150.961 23.9566 151.679 23.0526 152.727 21.2432L157.253 23.6285C155.954 26.1505 153.801 28.5889 149.222 28.5889Z" fill="#BFC5CF"></path><path d="M169.47 19.3244C168.835 18.6392 168.12 18.1181 167.153 18.1181C165.939 18.1181 165.192 18.6939 165.192 20.4472V28.2867H160.226V13.8975H165.192V14.9398C166.047 14.1178 167.014 13.5967 168.283 13.5967C169.331 13.5967 170.05 13.8428 170.628 14.1999L169.47 19.3244Z" fill="#BFC5CF"></path><path d="M181.278 28.2882V27.328C180.394 28.0132 179.346 28.5905 177.664 28.5905C174.49 28.5905 172.971 26.4803 172.971 22.6958V13.8977H177.966V22.0668C177.966 23.9294 178.601 24.4232 179.621 24.4232C180.643 24.4232 181.276 23.9294 181.276 22.12V13.8977H186.272V28.2897H181.278V28.2882Z" fill="#BFC5CF"></path><path d="M198.163 28.2883V20.119C198.163 18.2549 197.528 17.7626 196.508 17.7626C195.459 17.7626 194.824 18.2564 194.824 20.0643V28.2883H189.858V13.8975H194.824V14.8577C195.734 14.1725 196.756 13.5967 198.467 13.5967C201.641 13.5967 203.16 15.707 203.16 19.4901V28.2898H198.163V28.2883Z" fill="#BFC5CF"></path><path d="M212.839 28.589C208.59 28.589 206.051 25.9029 206.051 21.0518C206.051 16.6383 208.314 13.5952 212.949 13.5952C215.68 13.5952 217.254 14.8562 218.524 16.8844L215.102 19.4611C214.412 18.2001 213.943 17.597 212.868 17.597C211.597 17.597 210.963 18.858 210.963 21.1323C210.963 23.4082 211.653 24.5857 213.005 24.5857C213.943 24.5857 214.605 24.0646 215.517 22.7215L218.663 25.1615C216.979 27.6303 215.405 28.589 212.839 28.589Z" fill="#BFC5CF"></path><path d="M229.779 28.2884V20.1191C229.779 18.2549 229.144 17.7627 228.124 17.7627C227.075 17.7627 226.44 18.2565 226.44 20.0644V28.2884H221.474V10.2786L226.44 8.30508V14.8563C227.35 14.1711 228.372 13.5953 230.083 13.5953C233.257 13.5953 234.775 15.7056 234.775 19.4886V28.2884H229.779Z" fill="#BFC5CF"></path><path d="M0 0.883606V11.8453H11.0352V33.7702H22.0718V11.8453H33.107V0.883606H0Z" fill="#BFC5CF"></path><path d="M44.1421 22.8083V11.8451H33.1069V33.77H66.2139V22.8083H44.1421Z" fill="#BFC5CF"></path><path d="M66.2139 0.883423H44.1421V11.8451H66.2139V0.883423Z" fill="#BFC5CF"></path></svg>