<svg xmlns:xlink="http://www.w3.org/1999/xlink" width="18" height="15" viewBox="0 0 18 15" fill="none" xmlns="http://www.w3.org/2000/svg"><path d="M17.1428 2.11918C16.5053 2.406 15.826 2.59611 15.1178 2.68841C15.8464 2.24226 16.4025 1.54116 16.6639 0.69611C15.9846 1.11149 15.2346 1.4049 14.4353 1.56864C13.7903 0.864242 12.8711 0.427979 11.8682 0.427979C9.92248 0.427979 8.35606 2.04776 8.35606 4.03347C8.35606 4.31918 8.37963 4.59391 8.43749 4.85544C5.51571 4.70929 2.93035 3.27303 1.19357 1.08512C0.890356 1.62468 0.712499 2.24226 0.712499 2.9071C0.712499 4.15545 1.33928 5.26204 2.27357 5.9027C1.70893 5.89171 1.155 5.72357 0.685713 5.45874C0.685713 5.46973 0.685713 5.48401 0.685713 5.4983C0.685713 7.24995 1.90393 8.70489 3.50142 9.04005C3.21535 9.12027 2.90357 9.15873 2.58 9.15873C2.355 9.15873 2.12785 9.14555 1.91464 9.0972C2.37 10.5247 3.66214 11.5741 5.19856 11.6082C4.00285 12.5675 2.48464 13.1455 0.84107 13.1455C0.552856 13.1455 0.276428 13.1324 0 13.0961C1.55678 14.1258 3.40178 14.7137 5.39142 14.7137C11.8586 14.7137 15.3943 9.21917 15.3943 4.45654C15.3943 4.2972 15.3889 4.14336 15.3814 3.99061C16.0789 3.48292 16.665 2.84885 17.1428 2.11918Z" fill="#232323" fill-opacity="0.5"></path></svg>