<svg xmlns:xlink="http://www.w3.org/1999/xlink" width="33" height="22" viewBox="0 0 33 22" fill="none" xmlns="http://www.w3.org/2000/svg"><path fill-rule="evenodd" clip-rule="evenodd" d="M0 0H26.7135V5.66708H19.8132C19.6921 5.66708 19.6114 5.70754 19.4904 5.74802C19.4097 5.7885 19.2886 5.82899 19.2483 5.90994C19.2079 5.9909 19.1272 6.07185 19.0868 6.15281C19.0465 6.23377 19.0061 6.35523 19.0061 6.47666V14.6939C19.0061 14.8154 19.0465 14.8963 19.0868 15.0178C19.1272 15.0987 19.1675 15.2201 19.2483 15.2606C19.329 15.3416 19.4097 15.3821 19.4904 15.4225C19.5711 15.463 19.6921 15.5035 19.8132 15.5035H26.7135V21.1706H0V0Z" fill="#07775D"></path><path fill-rule="evenodd" clip-rule="evenodd" d="M20.6191 7.24573V13.8033H32.2811V7.24573H20.6191ZM23.6053 8.46009C24.7351 8.46009 25.7036 9.43159 25.7036 10.565C25.7036 11.6984 24.7351 12.6699 23.6053 12.6699C22.4754 12.6699 21.5069 11.7389 21.5069 10.565C21.5069 9.39111 22.4754 8.46009 23.6053 8.46009Z" fill="#07775D"></path></svg>