<svg xmlns:xlink="http://www.w3.org/1999/xlink" width="21" height="15" viewBox="0 0 21 15" fill="none" xmlns="http://www.w3.org/2000/svg"><path d="M20.4366 2.663C20.2093 1.78742 19.5275 1.09618 18.6638 0.854245C17.107 0.427979 10.857 0.427979 10.857 0.427979C10.857 0.427979 4.60705 0.427979 3.03887 0.854245C2.17524 1.08466 1.50478 1.7759 1.26615 2.663C0.857056 4.25286 0.857056 7.57083 0.857056 7.57083C0.857056 7.57083 0.857056 10.8888 1.27751 12.4787C1.50478 13.3542 2.1866 14.0455 3.05023 14.2874C4.60705 14.7137 10.857 14.7137 10.857 14.7137C10.857 14.7137 17.107 14.7137 18.6752 14.2874C19.5388 14.057 20.2093 13.3657 20.4479 12.4787C20.857 10.8888 20.857 7.57083 20.857 7.57083C20.857 7.57083 20.857 4.25286 20.4366 2.663ZM8.81159 10.5893V4.5524L14.0389 7.57083L8.81159 10.5893Z" fill="#232323" fill-opacity="0.5"></path></svg>